<?xml version="1.0" standalone="no"?>
<!DOCTYPE svg PUBLIC "-//W3C//DTD SVG 20010904//EN"
 "http://www.w3.org/TR/2001/REC-SVG-20010904/DTD/svg10.dtd">
<svg version="1.0" xmlns="http://www.w3.org/2000/svg"
 width="1032.000000pt" height="1032.000000pt" viewBox="0 0 1032.000000 1032.000000"
 preserveAspectRatio="xMidYMid meet">
<metadata>
Created by potrace 1.14, written by Peter Selinger 2001-2017
</metadata>
<g transform="translate(0.000000,1032.000000) scale(0.100000,-0.100000)"
fill="#000000" stroke="none">
<path d="M4990 10188 c-18 -13 -43 -36 -54 -51 -21 -28 -21 -37 -24 -686 l-2
-657 22 -34 c38 -55 73 -75 132 -75 39 0 61 6 88 25 72 48 69 20 69 730 0 441
-4 646 -11 666 -35 90 -146 132 -220 82z"/>
<path d="M1791 9014 c-74 -32 -111 -108 -90 -186 9 -38 65 -97 457 -491 246
-247 463 -456 482 -466 74 -36 172 -4 206 67 19 41 20 101 2 136 -8 15 -218
231 -467 480 -505 506 -498 500 -590 460z"/>
<path d="M8420 9022 c-32 -5 -932 -900 -956 -950 -20 -43 -14 -114 13 -151 45
-60 135 -82 199 -48 43 23 921 907 934 940 45 122 -54 231 -190 209z"/>
<path d="M5047 7574 c-1 -1 -33 -4 -72 -8 -678 -54 -1288 -398 -1691 -951
-106 -144 -171 -261 -268 -477 -56 -124 -134 -419 -152 -573 -4 -33 -8 -73
-10 -90 -6 -45 -5 -344 0 -390 3 -22 8 -69 11 -105 40 -411 254 -892 545
-1225 45 -51 204 -210 253 -253 180 -158 481 -330 725 -416 95 -33 281 -85
327 -90 11 -2 34 -6 50 -9 157 -34 556 -41 702 -13 11 3 43 8 70 12 62 9 60 8
183 39 642 160 1202 610 1500 1203 99 199 161 373 205 584 23 111 38 269 39
413 1 146 -7 303 -18 355 -1 8 -6 38 -10 65 -21 135 -74 322 -138 485 -211
540 -680 1021 -1221 1253 -100 43 -304 113 -368 126 -24 5 -69 14 -99 20 -68
14 -175 30 -255 37 -57 6 -304 12 -308 8z m388 -329 c792 -127 1421 -673 1639
-1424 94 -322 106 -678 35 -991 -6 -25 -12 -54 -15 -64 -6 -32 -55 -178 -70
-213 -8 -17 -14 -34 -14 -38 0 -4 -25 -58 -55 -120 -195 -400 -519 -724 -920
-920 -292 -143 -551 -203 -880 -203 -292 0 -511 44 -783 157 -340 141 -692
434 -877 730 -5 9 -13 18 -16 21 -11 10 -87 146 -127 227 -44 91 -102 247
-128 345 -15 61 -18 73 -29 128 -40 199 -48 466 -20 655 83 568 389 1061 855
1377 52 36 100 67 105 69 6 2 48 25 95 51 141 78 400 170 550 195 163 27 221
31 410 28 113 -2 223 -7 245 -10z"/>
<path d="M95 5406 c-121 -53 -123 -220 -3 -282 27 -14 107 -16 728 -16 734 -1
746 0 788 45 69 73 59 182 -20 239 l-33 23 -715 2 c-579 2 -721 0 -745 -11z"/>
<path d="M8734 5395 c-83 -50 -101 -167 -37 -234 51 -53 27 -51 785 -51 664 0
705 1 744 19 105 48 116 191 20 263 l-31 23 -720 3 -720 2 -41 -25z"/>
<path d="M2734 2665 c-30 -13 -907 -880 -939 -928 -10 -16 -17 -47 -18 -75 -1
-115 115 -201 208 -154 45 23 922 900 944 945 62 124 -69 266 -195 212z"/>
<path d="M7468 2667 c-83 -38 -123 -128 -88 -203 21 -48 908 -940 952 -958 81
-35 189 34 204 129 13 81 4 91 -479 572 -382 381 -458 452 -492 462 -48 13
-62 13 -97 -2z"/>
<path d="M5005 1626 c-37 -16 -70 -52 -84 -89 -7 -19 -11 -239 -11 -669 0
-629 0 -641 21 -677 27 -49 63 -73 115 -79 60 -6 123 26 153 78 l22 40 0 638
c0 441 -4 648 -11 668 -32 84 -126 125 -205 90z"/>
</g>
</svg>
